<mxfile host="app.diagrams.net" modified="2023-02-19T16:31:42.705Z" agent="5.0 (Windows NT 10.0; Win64; x64) AppleWebKit/537.36 (KHTML, like Gecko) Chrome/110.0.0.0 Safari/537.36" etag="UNKudY1YkrB_OOzHU_Vc" version="20.8.20" type="github">
  <diagram name="第 1 页" id="PY6PPj0qpkvoNrjOzG6V">
    <mxGraphModel dx="1434" dy="796" grid="1" gridSize="10" guides="1" tooltips="1" connect="1" arrows="1" fold="1" page="1" pageScale="1" pageWidth="827" pageHeight="1169" math="0" shadow="0">
      <root>
        <mxCell id="0" />
        <mxCell id="1" parent="0" />
        <mxCell id="RD9bJ5DUWy120FumxgU6-11" style="edgeStyle=orthogonalEdgeStyle;shape=connector;rounded=0;orthogonalLoop=1;jettySize=auto;html=1;entryX=0.25;entryY=0;entryDx=0;entryDy=0;labelBackgroundColor=default;strokeColor=default;fontFamily=Helvetica;fontSize=11;fontColor=default;endArrow=classic;" edge="1" parent="1" source="RD9bJ5DUWy120FumxgU6-3" target="RD9bJ5DUWy120FumxgU6-4">
          <mxGeometry relative="1" as="geometry" />
        </mxCell>
        <mxCell id="RD9bJ5DUWy120FumxgU6-3" value="1" style="whiteSpace=wrap;html=1;aspect=fixed;" vertex="1" parent="1">
          <mxGeometry x="214" y="545" width="80" height="80" as="geometry" />
        </mxCell>
        <mxCell id="RD9bJ5DUWy120FumxgU6-12" style="edgeStyle=orthogonalEdgeStyle;shape=connector;rounded=0;orthogonalLoop=1;jettySize=auto;html=1;entryX=0.25;entryY=0;entryDx=0;entryDy=0;labelBackgroundColor=default;strokeColor=default;fontFamily=Helvetica;fontSize=11;fontColor=default;endArrow=classic;" edge="1" parent="1" source="RD9bJ5DUWy120FumxgU6-4" target="RD9bJ5DUWy120FumxgU6-5">
          <mxGeometry relative="1" as="geometry" />
        </mxCell>
        <mxCell id="RD9bJ5DUWy120FumxgU6-4" value="3" style="whiteSpace=wrap;html=1;aspect=fixed;" vertex="1" parent="1">
          <mxGeometry x="294" y="545" width="80" height="80" as="geometry" />
        </mxCell>
        <mxCell id="RD9bJ5DUWy120FumxgU6-13" style="edgeStyle=orthogonalEdgeStyle;shape=connector;rounded=0;orthogonalLoop=1;jettySize=auto;html=1;entryX=0.25;entryY=0;entryDx=0;entryDy=0;labelBackgroundColor=default;strokeColor=default;fontFamily=Helvetica;fontSize=11;fontColor=default;endArrow=classic;" edge="1" parent="1" source="RD9bJ5DUWy120FumxgU6-5" target="RD9bJ5DUWy120FumxgU6-6">
          <mxGeometry relative="1" as="geometry" />
        </mxCell>
        <mxCell id="RD9bJ5DUWy120FumxgU6-5" value="5" style="whiteSpace=wrap;html=1;aspect=fixed;" vertex="1" parent="1">
          <mxGeometry x="374" y="545" width="80" height="80" as="geometry" />
        </mxCell>
        <mxCell id="RD9bJ5DUWy120FumxgU6-14" style="edgeStyle=orthogonalEdgeStyle;shape=connector;rounded=0;orthogonalLoop=1;jettySize=auto;html=1;entryX=0.25;entryY=0;entryDx=0;entryDy=0;labelBackgroundColor=default;strokeColor=default;fontFamily=Helvetica;fontSize=11;fontColor=default;endArrow=classic;" edge="1" parent="1" source="RD9bJ5DUWy120FumxgU6-6" target="RD9bJ5DUWy120FumxgU6-7">
          <mxGeometry relative="1" as="geometry" />
        </mxCell>
        <mxCell id="RD9bJ5DUWy120FumxgU6-6" value="7" style="whiteSpace=wrap;html=1;aspect=fixed;" vertex="1" parent="1">
          <mxGeometry x="454" y="545" width="80" height="80" as="geometry" />
        </mxCell>
        <mxCell id="RD9bJ5DUWy120FumxgU6-7" value="9" style="whiteSpace=wrap;html=1;aspect=fixed;" vertex="1" parent="1">
          <mxGeometry x="534" y="545" width="80" height="80" as="geometry" />
        </mxCell>
        <mxCell id="RD9bJ5DUWy120FumxgU6-15" value="1" style="whiteSpace=wrap;html=1;aspect=fixed;" vertex="1" parent="1">
          <mxGeometry x="214" y="810" width="80" height="80" as="geometry" />
        </mxCell>
        <mxCell id="RD9bJ5DUWy120FumxgU6-16" value="3" style="whiteSpace=wrap;html=1;aspect=fixed;" vertex="1" parent="1">
          <mxGeometry x="294" y="810" width="80" height="80" as="geometry" />
        </mxCell>
        <mxCell id="RD9bJ5DUWy120FumxgU6-17" value="5" style="whiteSpace=wrap;html=1;aspect=fixed;" vertex="1" parent="1">
          <mxGeometry x="374" y="810" width="80" height="80" as="geometry" />
        </mxCell>
        <mxCell id="RD9bJ5DUWy120FumxgU6-18" value="7" style="whiteSpace=wrap;html=1;aspect=fixed;" vertex="1" parent="1">
          <mxGeometry x="454" y="810" width="80" height="80" as="geometry" />
        </mxCell>
        <mxCell id="RD9bJ5DUWy120FumxgU6-19" value="9" style="whiteSpace=wrap;html=1;aspect=fixed;" vertex="1" parent="1">
          <mxGeometry x="534" y="810" width="80" height="80" as="geometry" />
        </mxCell>
        <mxCell id="RD9bJ5DUWy120FumxgU6-20" value="" style="shape=flexArrow;endArrow=classic;html=1;rounded=0;labelBackgroundColor=default;strokeColor=default;fontFamily=Helvetica;fontSize=11;fontColor=default;" edge="1" parent="1" target="RD9bJ5DUWy120FumxgU6-17">
          <mxGeometry width="50" height="50" relative="1" as="geometry">
            <mxPoint x="414" y="750" as="sourcePoint" />
            <mxPoint x="470" y="680" as="targetPoint" />
          </mxGeometry>
        </mxCell>
        <mxCell id="RD9bJ5DUWy120FumxgU6-21" value="1" style="whiteSpace=wrap;html=1;aspect=fixed;" vertex="1" parent="1">
          <mxGeometry x="218" y="1058" width="80" height="80" as="geometry" />
        </mxCell>
        <mxCell id="RD9bJ5DUWy120FumxgU6-22" value="3" style="whiteSpace=wrap;html=1;aspect=fixed;" vertex="1" parent="1">
          <mxGeometry x="298" y="1058" width="80" height="80" as="geometry" />
        </mxCell>
        <mxCell id="RD9bJ5DUWy120FumxgU6-23" value="5" style="whiteSpace=wrap;html=1;aspect=fixed;" vertex="1" parent="1">
          <mxGeometry x="378" y="1058" width="80" height="80" as="geometry" />
        </mxCell>
        <mxCell id="RD9bJ5DUWy120FumxgU6-24" value="7" style="whiteSpace=wrap;html=1;aspect=fixed;" vertex="1" parent="1">
          <mxGeometry x="458" y="1058" width="80" height="80" as="geometry" />
        </mxCell>
        <mxCell id="RD9bJ5DUWy120FumxgU6-25" value="9" style="whiteSpace=wrap;html=1;aspect=fixed;" vertex="1" parent="1">
          <mxGeometry x="538" y="1058" width="80" height="80" as="geometry" />
        </mxCell>
        <mxCell id="RD9bJ5DUWy120FumxgU6-26" value="" style="endArrow=classic;startArrow=classic;html=1;rounded=0;labelBackgroundColor=default;strokeColor=default;fontFamily=Helvetica;fontSize=11;fontColor=default;shape=connector;" edge="1" parent="1">
          <mxGeometry width="50" height="50" relative="1" as="geometry">
            <mxPoint x="220" y="910" as="sourcePoint" />
            <mxPoint x="610" y="910" as="targetPoint" />
          </mxGeometry>
        </mxCell>
        <mxCell id="RD9bJ5DUWy120FumxgU6-27" value="" style="endArrow=classic;startArrow=classic;html=1;rounded=0;labelBackgroundColor=default;strokeColor=default;fontFamily=Helvetica;fontSize=11;fontColor=default;shape=connector;" edge="1" parent="1">
          <mxGeometry width="50" height="50" relative="1" as="geometry">
            <mxPoint x="214" y="1168" as="sourcePoint" />
            <mxPoint x="464" y="1168" as="targetPoint" />
          </mxGeometry>
        </mxCell>
        <mxCell id="RD9bJ5DUWy120FumxgU6-28" value="" style="shape=flexArrow;endArrow=classic;html=1;rounded=0;labelBackgroundColor=default;strokeColor=default;fontFamily=Helvetica;fontSize=11;fontColor=default;" edge="1" parent="1">
          <mxGeometry width="50" height="50" relative="1" as="geometry">
            <mxPoint x="337.5" y="998" as="sourcePoint" />
            <mxPoint x="337.5" y="1058" as="targetPoint" />
          </mxGeometry>
        </mxCell>
      </root>
    </mxGraphModel>
  </diagram>
</mxfile>
